<?xml version="1.0" standalone="no"?>
<!DOCTYPE svg PUBLIC "-//W3C//DTD SVG 20010904//EN"
 "http://www.w3.org/TR/2001/REC-SVG-20010904/DTD/svg10.dtd">
<svg version="1.0" xmlns="http://www.w3.org/2000/svg"
 width="121.000000pt" height="107.000000pt" viewBox="0 0 121.000000 107.000000"
 preserveAspectRatio="xMidYMid meet">

<g transform="translate(0.000000,107.000000) scale(0.100000,-0.100000)"
fill="#000000" stroke="none">
<path d="M190 921 c0 -23 -5 -30 -22 -33 -32 -5 -35 -28 -4 -28 24 0 26 -3 26
-44 0 -39 -3 -45 -22 -48 -28 -4 -27 -22 2 -26 17 -3 20 -11 20 -47 0 -36 -3
-44 -20 -47 -27 -4 -27 -22 0 -26 17 -3 20 -11 20 -48 0 -40 -2 -44 -25 -44
-32 0 -32 -18 0 -26 21 -5 25 -12 25 -44 0 -32 -4 -39 -22 -42 -32 -5 -35 -28
-4 -28 24 0 26 -3 26 -44 0 -39 -3 -45 -22 -48 -13 -2 -23 -7 -23 -13 0 -5 10
-11 23 -13 19 -3 22 -9 22 -47 0 -38 -3 -44 -22 -47 -13 -2 -23 -7 -23 -13 0
-5 10 -11 23 -13 17 -3 22 -10 22 -33 l0 -29 436 0 c344 0 435 3 432 13 -3 6
-19 13 -36 15 -24 2 -32 8 -32 23 0 10 -7 19 -15 19 -8 0 -15 -9 -15 -20 0
-17 -7 -20 -45 -20 -38 0 -45 3 -45 20 0 11 -7 20 -15 20 -8 0 -15 -9 -15 -20
0 -17 -7 -20 -39 -20 -30 0 -40 4 -44 20 -3 11 -10 20 -16 20 -6 0 -11 -9 -11
-20 0 -17 -7 -20 -45 -20 -38 0 -45 3 -45 20 0 11 -7 20 -15 20 -8 0 -15 -9
-15 -20 0 -17 -7 -20 -45 -20 -38 0 -45 3 -45 20 0 11 -7 20 -15 20 -8 0 -15
-9 -15 -20 0 -17 -7 -20 -45 -20 -38 0 -45 3 -45 20 0 26 -16 26 -23 0 -4 -16
-14 -20 -46 -20 -34 0 -41 3 -41 20 0 11 -7 20 -15 20 -8 0 -15 -9 -15 -20 0
-13 -7 -20 -20 -20 -18 0 -20 7 -20 78 0 69 3 81 23 100 14 13 30 19 43 16 14
-4 34 7 66 36 38 33 52 39 72 34 19 -4 28 -2 32 11 5 11 14 15 30 11 20 -5 27
0 44 34 l20 40 42 -30 c47 -35 59 -36 94 -13 23 15 28 15 60 0 48 -23 57 -22
83 13 l22 31 59 -33 c33 -18 62 -29 66 -25 11 11 -11 30 -70 62 l-55 30 -34
-33 c-33 -32 -34 -32 -63 -17 -37 19 -54 19 -82 -1 -20 -14 -25 -13 -64 14
-24 16 -48 32 -55 36 -8 4 -21 -8 -35 -34 -16 -27 -28 -38 -39 -35 -9 3 -22
-2 -29 -10 -9 -11 -22 -14 -39 -10 -22 5 -34 -2 -69 -38 -33 -33 -49 -43 -66
-40 -13 3 -27 0 -30 -6 -22 -35 -26 11 -26 299 0 269 -2 310 -15 310 -10 0
-15 -10 -15 -29z"/>
</g>
</svg>
