<?xml version="1.0" standalone="no"?>
<!DOCTYPE svg PUBLIC "-//W3C//DTD SVG 20010904//EN"
 "http://www.w3.org/TR/2001/REC-SVG-20010904/DTD/svg10.dtd">
<svg version="1.0" xmlns="http://www.w3.org/2000/svg"
 width="119.000000pt" height="112.000000pt" viewBox="0 0 119.000000 112.000000"
 preserveAspectRatio="xMidYMid meet">

<g transform="translate(0.000000,112.000000) scale(0.100000,-0.100000)"
fill="#000000" stroke="none">
<path d="M302 840 l3 -130 -31 -6 c-18 -3 -46 -14 -63 -25 l-31 -19 0 -239 0
-240 25 -20 c14 -11 48 -24 76 -30 63 -14 196 -14 204 -1 10 16 28 12 21 -5
-10 -26 8 -16 61 34 35 34 56 65 67 98 l16 48 65 0 c36 0 65 -3 65 -7 0 -5 4
-8 10 -8 9 0 1 27 -57 184 -21 56 -23 70 -12 77 8 5 17 9 20 9 4 0 21 -39 38
-87 17 -49 40 -105 50 -125 l19 -38 -133 -97 c-74 -54 -134 -101 -135 -105 0
-5 108 -8 240 -8 l240 0 0 180 c0 99 -3 180 -6 180 -3 0 -23 -13 -44 -30 -21
-16 -39 -30 -41 -30 -2 0 -3 95 -1 212 l3 211 -73 74 -72 73 -264 0 -263 0 3
-130z m561 50 l62 -60 -230 0 -231 0 -59 60 -59 60 228 0 228 0 61 -60z m-328
-210 c48 -18 67 -40 52 -58 -18 -22 -65 -39 -129 -47 -46 -6 -58 -4 -58 6 0
12 -2 11 -9 0 -20 -31 -200 21 -195 55 3 18 50 44 94 54 56 11 205 6 245 -10z
m182 -12 c-3 -8 -6 -5 -6 6 -1 11 2 17 5 13 3 -3 4 -12 1 -19z m27 -50 c8 -14
7 -21 -6 -34 -30 -30 -75 9 -48 42 16 18 39 15 54 -8z m-415 -64 c44 -5 58
-10 54 -20 -3 -9 2 -14 12 -14 10 0 15 5 12 14 -4 10 10 15 54 20 32 3 74 12
93 20 l33 14 6 -97 c5 -86 3 -103 -20 -169 -23 -65 -28 -71 -42 -59 -10 9 -36
13 -68 12 -51 -1 -58 3 -54 33 1 6 -5 12 -14 12 -9 0 -15 -6 -14 -12 4 -30 -3
-34 -52 -33 -32 1 -57 -4 -65 -13 -8 -7 -19 -10 -24 -7 -6 4 -17 1 -25 -5 -13
-11 -15 11 -15 163 l0 176 35 -15 c19 -8 62 -17 94 -20z m367 -65 c-13 -69
-99 -280 -118 -290 -11 -6 -22 -8 -25 -6 -2 3 26 87 63 188 58 155 69 179 76
158 5 -13 7 -36 4 -50z m344 -219 l0 -150 -205 0 c-113 0 -205 2 -205 4 0 2
33 26 73 54 39 28 128 93 197 146 69 52 128 95 133 95 4 1 7 -66 7 -149z"/>
<path d="M800 905 c0 -8 7 -15 15 -15 8 0 15 7 15 15 0 8 -7 15 -15 15 -8 0
-15 -7 -15 -15z"/>
<path d="M800 865 c0 -8 7 -15 15 -15 8 0 15 7 15 15 0 8 -7 15 -15 15 -8 0
-15 -7 -15 -15z"/>
<path d="M391 624 c0 -11 3 -14 6 -6 3 7 2 16 -1 19 -3 4 -6 -2 -5 -13z"/>
<path d="M694 615 c-4 -9 -2 -21 4 -27 15 -15 44 -1 40 19 -4 23 -36 29 -44 8z"/>
<path d="M382 489 c2 -6 8 -10 13 -10 5 0 11 4 13 10 2 6 -4 11 -13 11 -9 0
-15 -5 -13 -11z"/>
<path d="M386 453 c-11 -11 -6 -23 9 -23 8 0 15 4 15 9 0 13 -16 22 -24 14z"/>
<path d="M382 399 c2 -6 8 -10 13 -10 5 0 11 4 13 10 2 6 -4 11 -13 11 -9 0
-15 -5 -13 -11z"/>
<path d="M386 363 c-11 -11 -6 -23 9 -23 8 0 15 4 15 9 0 13 -16 22 -24 14z"/>
<path d="M879 265 c-63 -47 -115 -89 -117 -95 -2 -6 41 -10 122 -10 l126 0 0
89 c0 50 -4 92 -8 95 -5 3 -60 -33 -123 -79z m111 -15 l0 -70 -96 0 -96 0 94
70 c51 38 94 69 96 70 1 0 2 -31 2 -70z"/>
</g>
</svg>
