<?xml version="1.0" standalone="no"?>
<!DOCTYPE svg PUBLIC "-//W3C//DTD SVG 20010904//EN"
 "http://www.w3.org/TR/2001/REC-SVG-20010904/DTD/svg10.dtd">
<svg version="1.0" xmlns="http://www.w3.org/2000/svg"
 width="114.000000pt" height="93.000000pt" viewBox="0 0 114.000000 93.000000"
 preserveAspectRatio="xMidYMid meet">

<g transform="translate(0.000000,93.000000) scale(0.100000,-0.100000)"
fill="#000000" stroke="none">
<path d="M658 818 c-46 -16 -120 -43 -164 -58 l-82 -29 -136 27 c-103 20 -141
24 -154 16 -15 -10 -17 -41 -20 -316 -2 -265 0 -307 13 -318 9 -7 78 -26 155
-41 158 -32 128 -36 352 45 l127 45 136 -27 c102 -20 140 -24 153 -16 15 10
17 41 20 317 l2 306 -22 14 c-13 8 -77 24 -143 36 -66 12 -128 24 -137 26 -9
1 -54 -11 -100 -27z m370 -256 c3 -222 -1 -234 -52 -168 -15 21 -42 40 -68 49
l-43 14 3 52 c3 51 -10 91 -28 91 -6 0 -10 -35 -10 -79 0 -71 2 -82 22 -95 12
-9 31 -16 41 -16 10 0 38 -21 62 -46 28 -29 51 -44 60 -40 11 4 15 -2 15 -24
0 -28 -1 -29 -30 -19 -21 8 -40 7 -67 -2 -21 -7 -57 -12 -79 -10 -34 2 -45 -2
-62 -23 -11 -14 -23 -26 -26 -26 -3 0 -6 90 -6 200 l0 200 24 -6 c33 -8 41 11
14 31 -22 15 -22 17 -4 30 24 18 12 39 -15 25 -18 -10 -19 -7 -19 53 l0 64
133 -26 132 -27 3 -202z m-298 183 c0 -36 -2 -65 -5 -65 -16 0 -63 31 -69 45
-15 39 -6 62 27 73 17 5 35 10 40 11 4 1 7 -28 7 -64z m-101 -35 c5 -8 23 -25
42 -38 24 -17 34 -31 34 -50 0 -16 5 -26 13 -25 9 2 12 -41 12 -191 0 -193 0
-194 -22 -199 -13 -2 -58 -18 -100 -33 l-78 -29 -15 22 c-8 12 -31 27 -50 33
l-35 12 0 148 0 148 27 5 c16 3 30 2 33 -2 13 -20 50 -31 73 -22 45 17 45 59
1 117 -22 31 -51 46 -107 59 -50 11 -28 35 63 70 l85 33 9 -22 c4 -11 11 -28
15 -36z m-345 10 c55 -11 103 -20 108 -20 20 0 5 -37 -22 -52 -43 -24 -58 -62
-39 -96 8 -15 27 -33 42 -40 l27 -13 0 -145 c0 -121 -2 -144 -15 -144 -11 0
-15 13 -15 54 0 46 -4 59 -29 85 -51 54 -68 37 -26 -25 18 -26 25 -50 25 -83
0 -50 13 -71 42 -71 14 0 18 -8 18 -33 l0 -33 -133 26 -132 26 -3 163 c-3 170
4 190 33 102 18 -54 54 -83 83 -64 23 14 18 27 -12 31 -20 3 -28 13 -41 52 -9
28 -27 58 -41 69 -26 20 -32 56 -11 64 10 4 10 7 0 18 -13 13 -18 140 -7 152
4 4 16 5 28 2 12 -3 66 -14 120 -25z m241 -121 c39 -35 49 -79 16 -79 -10 0
-24 7 -32 16 -9 11 -22 14 -46 9 -30 -5 -33 -4 -33 20 0 16 -6 25 -15 25 -9 0
-15 -9 -15 -25 0 -27 -9 -32 -28 -13 -35 35 7 78 75 78 33 0 50 -7 78 -31z
m488 -367 c20 -18 23 -62 4 -62 -19 0 -125 19 -170 31 -49 13 -38 29 21 29 26
1 58 7 71 14 27 15 46 12 74 -12z m-528 -79 c18 -18 13 -24 -32 -37 -20 -7
-23 -4 -23 23 0 24 4 31 19 31 11 0 27 -7 36 -17z"/>
<path d="M915 739 c-4 -5 -1 -16 5 -24 10 -12 10 -18 0 -30 -17 -20 -4 -32 18
-19 12 8 22 8 34 0 22 -13 35 -1 18 19 -10 12 -10 18 0 30 17 20 3 40 -17 24
-11 -10 -19 -10 -33 -1 -13 8 -21 8 -25 1z"/>
<path d="M844 709 c-10 -17 13 -36 27 -22 12 12 4 33 -11 33 -5 0 -12 -5 -16
-11z"/>
<path d="M680 540 c0 -35 14 -39 30 -10 12 23 6 40 -16 40 -9 0 -14 -11 -14
-30z"/>
<path d="M672 455 c4 -33 22 -33 26 0 2 18 -1 25 -13 25 -12 0 -15 -7 -13 -25z"/>
<path d="M483 404 c-20 -41 -11 -64 30 -78 19 -7 32 -5 51 8 50 32 24 106 -37
106 -21 0 -31 -8 -44 -36z m75 -22 c3 -18 -1 -22 -22 -22 -19 0 -26 5 -26 18
0 39 43 43 48 4z"/>
<path d="M655 380 c-8 -27 10 -49 26 -33 13 13 8 45 -8 50 -6 2 -14 -6 -18
-17z"/>
<path d="M632 308 c-16 -16 -15 -48 2 -48 14 0 26 21 26 46 0 17 -12 18 -28 2z"/>
<path d="M455 271 c-6 -10 25 -31 44 -31 17 0 13 27 -5 34 -22 8 -32 8 -39 -3z"/>
<path d="M547 264 c-17 -18 -6 -35 21 -32 16 2 27 9 27 18 0 16 -36 26 -48 14z"/>
<path d="M172 584 c5 -25 47 -38 55 -18 7 18 -12 34 -40 34 -12 0 -17 -6 -15
-16z"/>
<path d="M244 549 c-3 -6 3 -21 15 -32 16 -16 23 -19 33 -9 9 9 7 16 -7 32
-20 23 -31 25 -41 9z"/>
<path d="M300 477 c0 -7 6 -22 14 -33 20 -27 43 -6 27 25 -13 23 -41 29 -41 8z"/>
<path d="M345 410 c-9 -14 23 -62 35 -55 14 9 12 39 -2 53 -15 15 -25 15 -33
2z"/>
</g>
</svg>
