<?xml version="1.0" standalone="no"?>
<!DOCTYPE svg PUBLIC "-//W3C//DTD SVG 20010904//EN"
 "http://www.w3.org/TR/2001/REC-SVG-20010904/DTD/svg10.dtd">
<svg version="1.0" xmlns="http://www.w3.org/2000/svg"
 width="108.000000pt" height="101.000000pt" viewBox="0 0 108.000000 101.000000"
 preserveAspectRatio="xMidYMid meet">

<g transform="translate(0.000000,101.000000) scale(0.100000,-0.100000)"
fill="#000000" stroke="none">
<path d="M96 927 c-21 -17 -27 -29 -23 -42 6 -13 10 -15 21 -6 7 6 16 8 19 4
4 -3 7 -170 7 -369 l0 -363 -37 -3 c-50 -4 -52 -31 -3 -38 32 -5 35 -8 38 -42
5 -54 32 -52 32 2 l0 40 396 0 c356 0 395 -2 384 -15 -10 -12 -10 -19 -2 -27
9 -9 17 -7 33 8 38 34 42 52 19 84 -25 35 -65 42 -55 10 6 -20 2 -20 -367 -20
l-373 0 83 83 c70 71 87 83 110 79 18 -2 37 4 56 19 24 19 27 27 23 58 -5 35
-1 40 201 243 167 168 203 208 188 214 -14 5 -62 -37 -219 -193 -181 -180
-205 -201 -234 -200 -46 1 -73 -27 -73 -74 0 -34 -8 -46 -81 -118 -44 -45 -82
-81 -85 -81 -2 0 -4 160 -4 355 0 353 0 356 20 345 16 -9 22 -8 27 6 4 10 -4
24 -23 40 -36 29 -42 29 -78 1z m322 -544 c3 -22 -28 -40 -48 -28 -12 7 -13
38 -3 49 15 14 48 1 51 -21z"/>
<path d="M491 804 c-26 -33 -26 -45 0 -78 28 -35 73 -33 102 5 50 68 -50 139
-102 73z m72 -26 c6 -18 -3 -38 -17 -38 -18 0 -35 21 -29 36 6 17 40 18 46 2z"/>
<path d="M264 751 c-80 -49 -59 -170 32 -187 41 -7 84 8 84 31 0 12 -9 13 -44
9 -37 -5 -46 -3 -65 17 -27 29 -27 59 0 88 19 20 28 22 65 16 36 -5 44 -3 44
9 0 37 -68 47 -116 17z"/>
<path d="M387 674 c-9 -10 2 -24 19 -24 8 0 14 7 14 15 0 15 -21 21 -33 9z"/>
<path d="M850 603 c-62 -23 -81 -103 -35 -148 55 -56 145 -16 145 63 0 57 -61
104 -110 85z m51 -43 c22 -12 26 -59 7 -78 -7 -7 -21 -12 -33 -12 -29 0 -45
19 -45 52 0 39 34 57 71 38z"/>
<path d="M610 493 c-36 -46 -8 -103 49 -103 48 0 78 41 61 84 -19 51 -77 61
-110 19z m74 -30 c4 -9 0 -23 -9 -32 -13 -14 -17 -14 -31 1 -9 9 -14 24 -11
32 8 21 43 20 51 -1z"/>
<path d="M536 298 c-22 -31 -20 -64 6 -88 26 -24 56 -26 86 -4 28 19 30 74 4
97 -27 25 -78 22 -96 -5z m74 -38 c0 -24 -26 -38 -42 -22 -16 16 -2 42 22 42
13 0 20 -7 20 -20z"/>
</g>
</svg>
