<?xml version="1.0" standalone="no"?>
<!DOCTYPE svg PUBLIC "-//W3C//DTD SVG 20010904//EN"
 "http://www.w3.org/TR/2001/REC-SVG-20010904/DTD/svg10.dtd">
<svg 
version="1.0" 
xmlns="http://www.w3.org/2000/svg"
 width="107.000000pt" 
 height="107.000000pt" 
 viewBox="0 0 107.000000 107.000000"
 preserveAspectRatio="xMidYMid meet">

<g transform="translate(0.000000,107.000000) scale(0.100000,-0.100000)"
fill="#000000" stroke="none">
<path d="M152 518 l3 -403 369 -3 c240 -1 373 1 380 8 7 7 -111 10 -362 10
l-372 0 0 395 c0 260 -3 395 -10 395 -7 0 -9 -136 -8 -402z"/>
<path d="M774 718 c-19 -20 -23 -29 -11 -25 9 4 17 4 17 0 0 -11 -61 -128 -79
-152 l-19 -25 -52 47 c-89 80 -276 154 -364 145 -30 -4 -30 -4 9 -11 162 -29
262 -71 348 -148 l52 -47 -40 -38 c-86 -81 -193 -132 -336 -160 l-74 -14 70 5
c121 7 248 64 353 159 l39 36 25 -38 c29 -43 54 -91 68 -128 9 -22 8 -25 -5
-20 -24 9 -18 -8 14 -38 l28 -27 7 32 c9 46 8 55 -5 42 -9 -9 -20 5 -44 55
-18 37 -44 82 -57 101 l-25 35 29 42 c16 24 40 69 54 101 22 49 28 55 35 38 6
-17 8 -15 8 10 1 52 -12 59 -45 23z"/>
</g>
</svg>
