<?xml version="1.0" standalone="no"?>
<!DOCTYPE svg PUBLIC "-//W3C//DTD SVG 20010904//EN"
 "http://www.w3.org/TR/2001/REC-SVG-20010904/DTD/svg10.dtd">
<svg version="1.0" xmlns="http://www.w3.org/2000/svg"
 width="108.000000pt" height="113.000000pt" viewBox="0 0 108.000000 113.000000"
 preserveAspectRatio="xMidYMid meet">

<g transform="translate(0.000000,113.000000) scale(0.100000,-0.100000)"
fill="#000000" stroke="none">
<path d="M348 293 c-3 -159 -5 -178 -20 -181 -16 -3 -18 11 -20 150 l-3 153
-86 3 -86 3 -7 -62 c-3 -34 -6 -104 -6 -155 0 -94 0 -94 -25 -94 -16 0 -25 -6
-25 -15 0 -13 60 -15 480 -15 420 0 480 2 480 15 0 9 -9 15 -25 15 l-25 0 -1
128 c-1 70 -4 152 -9 182 -6 48 -7 42 -9 -51 0 -58 -4 -140 -7 -182 l-7 -77
-63 0 -64 0 0 180 c0 153 -2 180 -15 180 -13 0 -15 -27 -15 -181 0 -166 -1
-180 -17 -177 -16 3 -18 21 -21 181 -1 107 -6 177 -12 177 -6 0 -10 -70 -10
-180 l0 -180 -70 0 -70 0 -1 183 c-1 107 -4 172 -9 157 -4 -14 -8 -96 -9 -182
-1 -151 -2 -158 -21 -158 -19 0 -20 7 -21 163 0 89 -4 171 -9 182 -5 12 -9
-51 -9 -162 l-1 -183 -70 0 -70 0 0 180 c0 110 -4 180 -10 180 -6 0 -11 -70
-12 -177z m-68 -33 l0 -150 -64 0 -64 0 -7 139 c-4 77 -4 144 0 150 3 6 35 11
71 11 l64 0 0 -150z"/>
</g>
</svg>
